<svg width="59.999992" height="40.000000" viewBox="0 0 60 40" fill="none" xmlns="http://www.w3.org/2000/svg" xmlns:xlink="http://www.w3.org/1999/xlink">
	<desc>
			Created with Pixso.
	</desc>
	<defs/>
	<path id="path" d="M22.4993 29.2355L22.4993 39.866L56.7858 24.6387L56.8583 24.6052C57.1004 24.4894 57.3314 24.3644 57.5512 24.2303C57.7711 24.0961 57.9783 23.9536 58.1729 23.8029C58.3674 23.6522 58.548 23.4943 58.7145 23.3292C58.881 23.1641 59.0324 22.993 59.1685 22.8158C59.3046 22.6387 59.4246 22.4567 59.5284 22.27C59.6322 22.0833 59.7191 21.8931 59.7892 21.6995C59.8592 21.5058 59.9118 21.3101 59.9471 21.1122C59.9824 20.9144 60 20.7159 60 20.5166C60 20.3174 59.9824 20.1188 59.9471 19.921C59.9118 19.7231 59.8592 19.5274 59.7892 19.3338C59.7191 19.1401 59.6322 18.9499 59.5284 18.7632C59.4246 18.5765 59.3046 18.3946 59.1685 18.2174C59.0324 18.0403 58.881 17.8691 58.7145 17.704C58.548 17.5389 58.3674 17.381 58.1729 17.2303C57.9783 17.0796 57.7711 16.9372 57.5512 16.803C57.3314 16.6688 57.1004 16.5438 56.8583 16.428L22.4993 0L22.4993 10.7645L0 0L0 40L22.4993 29.2355Z" fill-rule="nonzero" fill="#E72A52"/>
</svg>
