<svg width="59.999992" height="40.000000" viewBox="0 0 60 40" fill="none" xmlns="http://www.w3.org/2000/svg" xmlns:xlink="http://www.w3.org/1999/xlink">
	<desc>
			Created with Pixso.
	</desc>
	<defs/>
	<path id="path" d="M37.5007 10.7645L37.5007 0.133972L3.21417 15.3613L3.14167 15.3948C2.8996 15.5106 2.66863 15.6356 2.44876 15.7697C2.2289 15.9039 2.02168 16.0464 1.82712 16.1971C1.63255 16.3478 1.452 16.5057 1.28548 16.6708C1.11897 16.8359 0.967636 17.007 0.831512 17.1842C0.695389 17.3613 0.575417 17.5433 0.471603 17.73C0.367798 17.9167 0.280876 18.1069 0.210838 18.3005C0.140808 18.4942 0.0881653 18.6899 0.0528946 18.8878C0.0176315 19.0856 0 19.2841 0 19.4834C0 19.6826 0.0176315 19.8812 0.0528946 20.079C0.0881653 20.2769 0.140808 20.4726 0.210838 20.6662C0.280876 20.8599 0.367798 21.0501 0.471603 21.2368C0.575417 21.4235 0.695389 21.6054 0.831512 21.7826C0.967636 21.9597 1.11897 22.1309 1.28548 22.296C1.452 22.4611 1.63255 22.619 1.82712 22.7697C2.02168 22.9204 2.2289 23.0628 2.44876 23.197C2.66863 23.3312 2.8996 23.4562 3.14167 23.572L37.5007 40L37.5007 29.2355L60 40L60 0L37.5007 10.7645Z" fill-rule="nonzero" fill="#E72A52"/>
</svg>
